<svg xmlns="http://www.w3.org/2000/svg" xmlns:xlink="http://www.w3.org/1999/xlink" viewBox="0 0 270 157.97"><defs><style>.cls-1,.cls-4{fill:#fff;}.cls-2{fill:url(#linear-gradient);}.cls-3{fill:url(#linear-gradient-2);}.cls-4{opacity:0.12;isolation:isolate;}</style><linearGradient id="linear-gradient" x1="134.68" y1="151.09" x2="135.31" y2="-0.2" gradientUnits="userSpaceOnUse"><stop offset="0" stop-color="#0793ff"/><stop offset="1" stop-color="#64bcff"/></linearGradient><linearGradient id="linear-gradient-2" x1="135" y1="197.36" x2="135" y2="0" xlink:href="#linear-gradient"/></defs><title>Bronze</title><g id="Layer_2" data-name="Layer 2"><g id="Layer_1-2" data-name="Layer 1"><path class="cls-1" d="M270,8V138.93c-13.73-6.27-33.26-19.61-46.44-8.9-18.62,15.13-28.19,34.94-61.88,25.48a78.12,78.12,0,0,1-20.6-11.14s-18.71-14.46-34.63-16.14c0,0-15.91-3.34-40.24,16.15,0,0-33.68,29.62-66.21.64V8A8,8,0,0,1,8,0H262A8,8,0,0,1,270,8Z"/><path class="cls-2" d="M270,8V138.93c-13.73-6.27-33.26-19.61-46.44-8.9-18.62,15.13-28.19,34.94-61.88,25.48a78.12,78.12,0,0,1-20.6-11.14s-18.71-14.46-34.63-16.14c0,0-15.91-3.34-40.24,16.15,0,0-33.68,29.62-66.21.64V8A8,8,0,0,1,8,0H262A8,8,0,0,1,270,8Z"/><path class="cls-3" d="M270,8V96.12c-18.32-11.63-36.84-18.54-52.47-8.93-21.15,13-41.09,34.76-64.35,33.06-18.66-1.36-35.07-17.93-53.66-20.44-17.3-2.34-34,7.68-50.58,14.54C32.78,121,13.77,124.18,0,111.47V8A8,8,0,0,1,8,0H262A8,8,0,0,1,270,8Z"/><circle class="cls-4" cx="116.38" cy="68.65" r="6.37"/><circle class="cls-4" cx="256.47" cy="56.55" r="5.73"/><path class="cls-1" d="M92.05,65.37H84.14V47.76h7.7a6.24,6.24,0,0,1,4,1.17,3.91,3.91,0,0,1,1.45,3.22,3.7,3.7,0,0,1-.92,2.48,3.59,3.59,0,0,1-2.27,1.28v.22A4.32,4.32,0,0,1,97,57.45a4,4,0,0,1,1.14,2.88A4.5,4.5,0,0,1,96.5,64,6.72,6.72,0,0,1,92.05,65.37ZM87.82,50.58v4.48H90.6a3.8,3.8,0,0,0,2.28-.59,1.92,1.92,0,0,0,.79-1.65A2,2,0,0,0,93,51.17a3.21,3.21,0,0,0-2-.59Zm0,12h3.29a3.87,3.87,0,0,0,2.43-.65A2.24,2.24,0,0,0,94.38,60a2.14,2.14,0,0,0-.86-1.83,4.19,4.19,0,0,0-2.5-.63h-3.2Z"/><path class="cls-1" d="M105.16,59v6.38h-3.69V47.76h7.4a6.57,6.57,0,0,1,4.58,1.51,5.32,5.32,0,0,1,1.67,4.14,5.59,5.59,0,0,1-.85,3.06,4.79,4.79,0,0,1-2.35,2l3.71,7h-4.17L108.17,59Zm0-8.25v5.42h3.24a3.06,3.06,0,0,0,2.16-.72,2.88,2.88,0,0,0,0-4,3.1,3.1,0,0,0-2.17-.73Z"/><path class="cls-1" d="M126.53,47.31a8,8,0,0,1,6.19,2.49A9.62,9.62,0,0,1,135,56.56a9.63,9.63,0,0,1-2.27,6.77,9,9,0,0,1-12.39,0,9.63,9.63,0,0,1-2.28-6.77,9.58,9.58,0,0,1,2.3-6.76A8,8,0,0,1,126.53,47.31ZM130,52.17a4.42,4.42,0,0,0-6.86,0,7,7,0,0,0-1.28,4.39A7,7,0,0,0,123.1,61,4.41,4.41,0,0,0,130,61a7,7,0,0,0,1.28-4.39A7,7,0,0,0,130,52.17Z"/><path class="cls-1" d="M142,65.37h-3.52V47.76h3.07l8.11,11h.22v-11h3.52V65.37h-3l-8.13-11H142Z"/><path class="cls-1" d="M157.2,65.37V62.88l8.86-11.75v-.22h-8.65V47.76h13.14v2.48L161.71,62v.22h9.09v3.15Z"/><path class="cls-1" d="M186.25,62.22v3.15H174.58V47.76h11.67v3.15h-8V55h7.53v2.92h-7.53v4.28Z"/></g></g></svg>