<svg xmlns="http://www.w3.org/2000/svg" width="18.84" height="16.531" viewBox="0 0 18.84 16.531"><defs><style>.a{fill:#a0a7b9;}</style></defs><g transform="translate(-744.198 -479.98)"><path class="a" d="M271.855,57.971c0,6.031-5.568,9.705-6.433,10.164a3.91,3.91,0,0,1-1.6.57c-.346,0-.575-.169-.575-.458a1.361,1.361,0,0,1,.575-.86,9.894,9.894,0,0,0,3.043-6.377,1.93,1.93,0,0,0-.86-1.664,3.877,3.877,0,0,1-2.931-3.843,3.357,3.357,0,0,1,3.445-3.328A5.406,5.406,0,0,1,271.855,57.971Z" transform="translate(491.184 427.806)"/><path class="a" d="M33.589,57.962c0,6.031-5.573,9.705-6.433,10.164a3.927,3.927,0,0,1-1.608.57c-.346,0-.57-.169-.57-.458a1.351,1.351,0,0,1,.57-.86A9.872,9.872,0,0,0,28.591,61a1.93,1.93,0,0,0-.86-1.664A3.878,3.878,0,0,1,24.8,55.493a3.361,3.361,0,0,1,3.45-3.328A5.409,5.409,0,0,1,33.589,57.962Z" transform="translate(719.398 427.815)"/></g></svg>