<svg xmlns="http://www.w3.org/2000/svg" width="30" height="30" viewBox="0 0 30 30"><defs><style>.a{fill:none;}.b{fill:#2d303a;}</style></defs><g transform="translate(-17 -37)"><rect class="a" width="30" height="30" transform="translate(17 37)"/><g transform="translate(20.696 44.609)"><path class="b" d="M3,4.232A1.248,1.248,0,0,0,4.256,5.464h20.1a1.232,1.232,0,1,0,0-2.464H4.256A1.248,1.248,0,0,0,3,4.232Z" transform="translate(-3 -3)"/><path class="b" d="M3,4.232A1.248,1.248,0,0,0,4.256,5.464h20.1a1.232,1.232,0,1,0,0-2.464H4.256A1.248,1.248,0,0,0,3,4.232Z" transform="translate(-3 3.159)"/><path class="b" d="M3,4.232A1.248,1.248,0,0,0,4.256,5.464h20.1a1.232,1.232,0,1,0,0-2.464H4.256A1.248,1.248,0,0,0,3,4.232Z" transform="translate(-3 9.319)"/></g></g></svg>