<svg xmlns="http://www.w3.org/2000/svg" xmlns:xlink="http://www.w3.org/1999/xlink" viewBox="0 0 270 157.97"><defs><style>.cls-1,.cls-4{fill:#fff;}.cls-2{fill:url(#linear-gradient);}.cls-3{fill:url(#linear-gradient-2);}.cls-4{opacity:0.12;isolation:isolate;}</style><linearGradient id="linear-gradient" x1="134.68" y1="151.09" x2="135.31" y2="-0.2" gradientUnits="userSpaceOnUse"><stop offset="0" stop-color="#0793ff"/><stop offset="1" stop-color="#64bcff"/></linearGradient><linearGradient id="linear-gradient-2" x1="135" y1="197.36" x2="135" y2="0" xlink:href="#linear-gradient"/></defs><title>Gold</title><g id="Layer_2" data-name="Layer 2"><g id="Layer_1-2" data-name="Layer 1"><path class="cls-1" d="M270,8V138.93c-13.73-6.27-33.26-19.61-46.44-8.9-18.62,15.13-28.19,34.94-61.88,25.48a78.12,78.12,0,0,1-20.6-11.14s-18.71-14.46-34.63-16.14c0,0-15.91-3.34-40.24,16.15,0,0-33.68,29.62-66.21.64V8A8,8,0,0,1,8,0H262A8,8,0,0,1,270,8Z"/><path class="cls-2" d="M270,8V138.93c-13.73-6.27-33.26-19.61-46.44-8.9-18.62,15.13-28.19,34.94-61.88,25.48a78.12,78.12,0,0,1-20.6-11.14s-18.71-14.46-34.63-16.14c0,0-15.91-3.34-40.24,16.15,0,0-33.68,29.62-66.21.64V8A8,8,0,0,1,8,0H262A8,8,0,0,1,270,8Z"/><path class="cls-3" d="M270,8V96.12c-18.32-11.63-36.84-18.54-52.47-8.93-21.15,13-41.09,34.76-64.35,33.06-18.66-1.36-35.07-17.93-53.66-20.44-17.3-2.34-34,7.68-50.58,14.54C32.78,121,13.77,124.18,0,111.47V8A8,8,0,0,1,8,0H262A8,8,0,0,1,270,8Z"/><circle class="cls-4" cx="116.38" cy="68.65" r="6.37"/><circle class="cls-4" cx="256.47" cy="56.55" r="5.73"/><path class="cls-1" d="M116.51,58.18a7.46,7.46,0,0,1-2.1,5.59,7.8,7.8,0,0,1-5.71,2,8,8,0,0,1-6.19-2.47,9.71,9.71,0,0,1-2.26-6.8,9.65,9.65,0,0,1,2.26-6.75,7.84,7.84,0,0,1,6.1-2.49A8.19,8.19,0,0,1,113.85,49a6.53,6.53,0,0,1,2.5,4.4h-3.66a3.87,3.87,0,0,0-1.48-2.08,4.43,4.43,0,0,0-2.6-.74,4,4,0,0,0-3.36,1.6A7,7,0,0,0,104,56.51,7,7,0,0,0,105.3,61a4.15,4.15,0,0,0,3.46,1.63,4.39,4.39,0,0,0,2.95-1A3.38,3.38,0,0,0,112.92,59l0-.32h-3.83V55.94h7.4Z"/><path class="cls-1" d="M127.74,47.31a7.94,7.94,0,0,1,6.18,2.49,9.62,9.62,0,0,1,2.28,6.76,9.63,9.63,0,0,1-2.28,6.77,8.94,8.94,0,0,1-12.38,0,9.63,9.63,0,0,1-2.28-6.77,9.58,9.58,0,0,1,2.29-6.76A8,8,0,0,1,127.74,47.31Zm3.43,4.86a4.42,4.42,0,0,0-6.86,0A7,7,0,0,0,123,56.56,6.89,6.89,0,0,0,124.31,61a4.41,4.41,0,0,0,6.86,0,6.94,6.94,0,0,0,1.27-4.39A6.94,6.94,0,0,0,131.17,52.17Z"/><path class="cls-1" d="M151.22,62.16v3.21H139.69V47.76h3.69v14.4Z"/><path class="cls-1" d="M154.56,47.75h6.93a8,8,0,0,1,6.1,2.27,8.93,8.93,0,0,1,2.17,6.42,9.36,9.36,0,0,1-2.16,6.61,7.9,7.9,0,0,1-6.11,2.32h-6.93Zm3.69,3.15V62.22h2.66a4.81,4.81,0,0,0,3.77-1.47A6.16,6.16,0,0,0,166,56.5a5.93,5.93,0,0,0-1.34-4.13,4.84,4.84,0,0,0-3.75-1.47Z"/></g></g></svg>