<svg xmlns="http://www.w3.org/2000/svg" width="25" height="25" viewBox="0 0 25 25"><defs><style>.a{fill:#1d9dff;}</style></defs><path class="a" d="M15.447,6.565c-.769-.035-1-.042-2.947-.042s-2.177.007-2.946.042a2.74,2.74,0,0,0-2.99,2.99c-.034.769-.043,1-.043,2.946s.008,2.177.043,2.947a2.74,2.74,0,0,0,2.99,2.99c.768.034,1,.043,2.946.043s2.178-.007,2.947-.043a2.741,2.741,0,0,0,2.99-2.99c.034-.769.042-1,.042-2.947s-.007-2.177-.042-2.946a2.742,2.742,0,0,0-2.99-2.99ZM12.5,16.245A3.744,3.744,0,1,1,16.245,12.5,3.745,3.745,0,0,1,12.5,16.245Zm3.893-6.761a.875.875,0,1,1,.875-.875A.875.875,0,0,1,16.393,9.483ZM14.93,12.5a2.43,2.43,0,1,1-2.43-2.43A2.43,2.43,0,0,1,14.93,12.5ZM12.5,0A12.5,12.5,0,1,0,25,12.5,12.5,12.5,0,0,0,12.5,0Zm7.248,15.506a4.025,4.025,0,0,1-4.241,4.242c-.778.035-1.027.044-3.007.044s-2.228-.008-3.006-.044a4.026,4.026,0,0,1-4.242-4.242c-.035-.777-.044-1.026-.044-3.006s.008-2.228.044-3.006A4.024,4.024,0,0,1,9.494,5.253c.778-.036,1.026-.045,3.006-.045s2.229.008,3.007.045a4.024,4.024,0,0,1,4.241,4.241c.035.778.044,1.026.044,3.006S19.783,14.729,19.748,15.506Z" transform="translate(0)"/></svg>