<svg xmlns="http://www.w3.org/2000/svg" width="38" height="38" viewBox="0 0 38 38"><defs><style>.a{fill:#1d9dff;}.b{fill:none;}.c{fill:#fff;stroke:#fff;stroke-width:0.5px;}</style></defs><circle class="a" cx="19" cy="19" r="19"/><g transform="translate(9.5 10.316)"><rect class="b" width="17.321" height="17.321"/><g transform="translate(11.819 14.434) rotate(180)"><path class="c" d="M.117.12A.392.392,0,0,1,.4,0,.4.4,0,0,1,.679.12L5.657,5.255a.419.419,0,0,1,0,.58L.679,10.964a.389.389,0,0,1-.563,0,.419.419,0,0,1,0-.58l4.7-4.842L.117.7A.422.422,0,0,1,.117.12Z" transform="translate(0)"/></g></g></svg>