<svg xmlns="http://www.w3.org/2000/svg" width="94.927" height="24.309" viewBox="0 0 94.927 24.309"><defs><style>.a{fill:#0793ff;}.b{fill:#00aeef;}.c{fill:#034366;}.d{fill:#fff;}</style></defs><g transform="translate(-404.296 -62.309)"><g transform="translate(404.296 62.309)"><path class="a" d="M304.258,167.5h7.469v16.769a1.583,1.583,0,0,1-1.583,1.583H290.788a1.583,1.583,0,0,1-1.583-1.583V167.5h15.053Z" transform="translate(-289.205 -161.54)"/><path class="b" d="M440.046,181.514" transform="translate(-427.22 -174.365)"/><path class="a" d="M302.337,102.664l-5.406.071H289.2V99a1.565,1.565,0,0,1,1.565-1.565h19.392A1.565,1.565,0,0,1,311.727,99v3.663h-9.389" transform="translate(-289.205 -97.436)"/><circle class="c" cx="7.182" cy="7.182" r="7.182" transform="translate(3.477 7.951)"/><rect class="c" width="1.636" height="5.408" rx="0.818" transform="translate(18.659 17.837) rotate(180)"/><circle class="d" cx="5.526" cy="5.526" r="5.526" transform="translate(5.133 9.607)"/><circle class="a" cx="5.255" cy="5.255" r="5.255" transform="translate(5.404 9.878)"/><rect class="c" width="4.498" height="1.918" transform="translate(16.185 1.918)"/><circle class="c" cx="0.943" cy="0.943" r="0.943" transform="translate(2.109 1.918)"/><circle class="c" cx="0.943" cy="0.943" r="0.943" transform="translate(5.133 1.918)"/><path class="b" d="M391.151,297.751a1.323,1.323,0,0,0,.172-.01v1.592h-4.761V297.54a1.346,1.346,0,0,0,.7.21,1.417,1.417,0,0,0,.474-.081,1.959,1.959,0,0,0,.362-.175.01.01,0,0,1,.006,0c.035-.023.071-.046.107-.071a.115.115,0,0,1,.159,0c.022.017.046.034.069.05h0a1.41,1.41,0,0,0,.4.187l.006,0a1.312,1.312,0,0,0,1.055-.023,1.56,1.56,0,0,0,.3-.187c.062-.048.093-.01.133.018A1.4,1.4,0,0,0,391.151,297.751Z" transform="translate(-378.283 -280.384)"/><path class="b" d="M367.046,297.584a5.3,5.3,0,0,1-9.736-.018l.108-.057a.407.407,0,0,1,.462,0,1.451,1.451,0,0,0,1.319.145,1.565,1.565,0,0,0,.35-.21c.062-.048.093-.01.132.018s.076.052.115.075a1.347,1.347,0,0,0,.7.21,1.416,1.416,0,0,0,.474-.081,1.959,1.959,0,0,0,.362-.175.01.01,0,0,1,.006,0l.107-.071a.115.115,0,0,1,.159,0c.022.017.046.034.069.05h0a1.41,1.41,0,0,0,.4.187l.006,0a1.312,1.312,0,0,0,1.055-.023,1.56,1.56,0,0,0,.3-.187c.062-.048.093-.01.133.018a1.4,1.4,0,0,0,.816.286,1.322,1.322,0,0,0,.172-.01,1.736,1.736,0,0,0,.778-.321.113.113,0,0,1,.158,0,1.535,1.535,0,0,0,1.328.245A.837.837,0,0,0,367.046,297.584Z" transform="translate(-351.519 -280.384)"/><g transform="translate(5.791 10.432)"><path class="d" d="M378.373,244.023l-.382,1.927-.945-.218v2.212a.969.969,0,0,1-.782-.21.442.442,0,0,0-.567,0,1.125,1.125,0,0,1-.232.143.866.866,0,0,1-.379.087,1.117,1.117,0,0,1-.375-.071l-.063-.031h-.029a1.008,1.008,0,0,1-.222-.108l-.028-.019-.05-.036a.485.485,0,0,0-.3-.106.528.528,0,0,0-.3.1c-.026.018-.052.036-.081.053l-.04.021-.01.01a1.564,1.564,0,0,1-.255.119,1.057,1.057,0,0,1-.351.061,1.038,1.038,0,0,1-.614-.223.548.548,0,0,0-.091-.058v-1.945l-.945.218-.382-1.927,2.664-.655a1.948,1.948,0,0,0,2.088,0Z" transform="translate(-369.798 -241.392)"/><circle class="d" cx="0.306" cy="0.306" r="0.306" transform="translate(2.595 0.778)"/><circle class="d" cx="0.174" cy="0.174" r="0.174" transform="translate(1.227 5.247)"/><circle class="d" cx="0.174" cy="0.174" r="0.174" transform="translate(8.59 5.247)"/><circle class="d" cx="0.232" cy="0.232" r="0.232" transform="translate(6.308 0.855)"/><circle class="d" cx="0.375" cy="0.375" r="0.375" transform="translate(4.345 0)"/><circle class="d" cx="0.256" cy="0.256" r="0.256" transform="translate(0.458 5.792)"/><circle class="d" cx="0.198" cy="0.198" r="0.198" transform="translate(8.764 3.03)"/><path class="d" d="M367.046,297.584a5.3,5.3,0,0,1-9.736-.018l.108-.057a.407.407,0,0,1,.462,0,1.451,1.451,0,0,0,1.319.145,1.565,1.565,0,0,0,.35-.21c.062-.048.093-.01.132.018s.076.052.115.075a1.347,1.347,0,0,0,.7.21,1.416,1.416,0,0,0,.474-.081,1.959,1.959,0,0,0,.362-.175.01.01,0,0,1,.006,0l.107-.071a.115.115,0,0,1,.159,0c.022.017.046.034.069.05h0a1.41,1.41,0,0,0,.4.187l.006,0a1.312,1.312,0,0,0,1.055-.023,1.56,1.56,0,0,0,.3-.187c.062-.048.093-.01.133.018a1.4,1.4,0,0,0,.816.286,1.322,1.322,0,0,0,.172-.01,1.736,1.736,0,0,0,.778-.321.113.113,0,0,1,.158,0,1.535,1.535,0,0,0,1.328.245A.837.837,0,0,0,367.046,297.584Z" transform="translate(-357.31 -290.816)"/></g><ellipse class="d" cx="0.109" cy="0.116" rx="0.109" ry="0.116" transform="translate(10.855 19.806)"/><g transform="translate(7.996 17.738)"><circle class="a" cx="0.233" cy="0.233" r="0.233" transform="translate(0.635 0.956)"/><circle class="a" cx="0.23" cy="0.23" r="0.23" transform="translate(3.595 1.073)"/><circle class="a" cx="0.116" cy="0.116" r="0.116" transform="translate(1.646 1.66)"/><circle class="a" cx="0.172" cy="0.172" r="0.172" transform="translate(3.539)"/><circle class="a" cx="0.172" cy="0.172" r="0.172"/><circle class="a" cx="0.172" cy="0.172" r="0.172" transform="translate(4.7 0.172)"/><circle class="a" cx="0.116" cy="0.116" r="0.116" transform="translate(1.414 0.056)"/><circle class="a" cx="0.267" cy="0.267" r="0.267" transform="translate(2.213 0.021)"/><circle class="a" cx="0.116" cy="0.116" r="0.116" transform="translate(2.788 0.957)"/></g></g><g transform="translate(435.413 67.904)"><path class="c" d="M220.57,462.225s0,.006,0,.009,0,.007,0,.01v.089a3.855,3.855,0,0,1-3.854,3.755h-5.139a3.855,3.855,0,0,1-3.855-3.855v-7.708a1.285,1.285,0,0,1,2.57,0v7.708a1.286,1.286,0,0,0,1.28,1.286h.01a1.285,1.285,0,0,0,1.279-1.286v-7.708a1.285,1.285,0,0,1,2.57,0v7.708a1.286,1.286,0,0,0,1.28,1.286h.01A1.286,1.286,0,0,0,218,462.234v-7.708a1.285,1.285,0,0,1,2.569,0v2.56s0,.007,0,.009,0,.007,0,.01v2.55s0,.007,0,.01,0,.007,0,.009Z" transform="translate(-207.722 -453.241)"/><path class="c" d="M382.915,462.225s0,.006,0,.009,0,.007,0,.01v.089a3.855,3.855,0,0,1-3.853,3.755h-5.139a3.855,3.855,0,0,1-3.855-3.855v-7.708a1.285,1.285,0,0,1,2.57,0v7.708a1.286,1.286,0,0,0,1.28,1.286h.01a1.285,1.285,0,0,0,1.279-1.286v-7.708a1.285,1.285,0,0,1,2.57,0v7.708a1.286,1.286,0,0,0,1.28,1.286h.01a1.286,1.286,0,0,0,1.279-1.286v-7.708a1.285,1.285,0,0,1,2.569,0v2.56s0,.007,0,.009,0,.007,0,.01v2.55s0,.007,0,.01,0,.007,0,.009Z" transform="translate(-345.854 -453.241)"/><path class="c" d="M591.583,454.525V464.8a1.284,1.284,0,1,1-2.569,0v-2.57a1.285,1.285,0,0,0-2.569,0v2.57a1.285,1.285,0,0,1-2.57,0V454.525a1.285,1.285,0,0,1,2.57,0v2.569a1.285,1.285,0,1,0,2.569,0v-2.569a1.284,1.284,0,0,1,2.569,0Z" transform="translate(-527.773 -453.241)"/><path class="c" d="M533.648,462.167v-.033a3.847,3.847,0,0,0-.218-1.185,3.99,3.99,0,0,0-.157-.377,3.8,3.8,0,0,0-.606-.908,3.856,3.856,0,0,0-1.21-.91,3.989,3.989,0,0,0-.378-.157,3.846,3.846,0,0,0-1.185-.218h-.139a1.285,1.285,0,0,1,.039-2.569h2.569a1.285,1.285,0,0,0,0-2.569h-2.636a3.849,3.849,0,0,0-1.218.218,3.932,3.932,0,0,0-.377.157,3.863,3.863,0,0,0-1.816,1.818,3.618,3.618,0,0,0-.156.375,3.816,3.816,0,0,0-.219,1.218c0,.023,0,.045,0,.068s0,.044,0,.065a3.86,3.86,0,0,0,.218,1.219,3.632,3.632,0,0,0,.157.375,3.8,3.8,0,0,0,.606.91,3.858,3.858,0,0,0,1.209.908h0a3.681,3.681,0,0,0,.377.158,3.844,3.844,0,0,0,1.218.218h.067a1.285,1.285,0,0,1,0,2.569h-2.57a1.285,1.285,0,0,0,0,2.57h2.637a3.848,3.848,0,0,0,1.218-.218,3.929,3.929,0,0,0,.377-.157,3.871,3.871,0,0,0,1.817-1.816,4.019,4.019,0,0,0,.157-.378,3.848,3.848,0,0,0,.218-1.185V462.3c0-.023,0-.044,0-.067S533.65,462.19,533.648,462.167Z" transform="translate(-478.479 -453.241)"/><path class="c" d="M475.715,459.674s0-.006,0-.01,0-.006,0-.01V458.38h0v-1.266c0-.006,0-.013,0-.019s0-.013,0-.019v-.054h0v-.008a3.787,3.787,0,0,0-.219-1.2,3.672,3.672,0,0,0-.156-.376,3.858,3.858,0,0,0-1.817-1.817,3.663,3.663,0,0,0-.376-.157,3.849,3.849,0,0,0-1.218-.218h-.133a3.849,3.849,0,0,0-1.218.218,3.931,3.931,0,0,0-.377.157,3.871,3.871,0,0,0-1.817,1.816,3.693,3.693,0,0,0-.156.377,3.842,3.842,0,0,0-.22,1.286V464.8a1.285,1.285,0,0,0,1.285,1.284h0a1.285,1.285,0,0,0,1.286-1.284s0-.006,0-.01v-1.276h0v-1.285a1.285,1.285,0,0,1,1.284-1.284h0a1.285,1.285,0,0,1,1.284,1.284v2.57a1.285,1.285,0,0,0,1.284,1.284h0a1.284,1.284,0,0,0,1.284-1.284s0-.006,0-.01v-1.276h0v-1.275s0-.006,0-.01,0-.006,0-.01v-2.55Zm-2.57-2.58a1.285,1.285,0,0,1-1.28,1.285h-.008a1.285,1.285,0,1,1,1.288-1.285Z" transform="translate(-429.185 -453.241)"/><path class="c" d="M309.516,460.949h2.569a1.285,1.285,0,1,0,0-2.569h-2.569a1.285,1.285,0,0,1,0-2.57h2.569a1.285,1.285,0,1,0,0-2.569h-2.569a3.855,3.855,0,0,0-3.855,3.855v5.138a3.855,3.855,0,0,0,3.855,3.855h2.569a1.285,1.285,0,1,0,0-2.569h-2.569a1.285,1.285,0,0,1,0-2.57Z" transform="translate(-291.054 -453.241)"/></g></g></svg>