<svg xmlns="http://www.w3.org/2000/svg" width="17" height="17" viewBox="0 0 17 17"><defs><style>.a{fill:#fff;}</style></defs><g transform="translate(-299.24 -582)"><circle cx="8.5" cy="8.5" r="8.5" transform="translate(299.24 582)"/><path class="a" d="M23.354,22.324h3.3a.532.532,0,0,1,.524.524v.481a.532.532,0,0,1-.524.524h-3.3v3.3a.532.532,0,0,1-.524.524h-.481a.532.532,0,0,1-.524-.524v-3.3h-3.3A.532.532,0,0,1,18,23.33v-.481a.532.532,0,0,1,.524-.524h3.3v-3.3a.532.532,0,0,1,.524-.524h.481a.532.532,0,0,1,.524.524Z" transform="translate(285.151 567.519)"/></g></svg>