<svg xmlns="http://www.w3.org/2000/svg" width="38" height="38" viewBox="0 0 38 38"><defs><style>.a{fill:#1d9dff;}.b{fill:none;}.c{fill:#fff;stroke:#fff;stroke-width:0.5px;}</style></defs><g transform="translate(324 757) rotate(180)"><circle class="a" cx="19" cy="19" r="19" transform="translate(286 719)"/><g transform="translate(295.5 729.364)"><rect class="b" width="17.321" height="17.321" transform="translate(0 0)"/><g transform="translate(11.819 13.972) rotate(180)"><path class="c" d="M.117,10.965a.392.392,0,0,0,.281.12.4.4,0,0,0,.281-.12L5.657,5.83a.419.419,0,0,0,0-.58L.679.12a.389.389,0,0,0-.563,0,.419.419,0,0,0,0,.58l4.7,4.842-4.7,4.845A.422.422,0,0,0,.117,10.965Z" transform="translate(0)"/></g></g></g></svg>