<svg xmlns="http://www.w3.org/2000/svg" xmlns:xlink="http://www.w3.org/1999/xlink" viewBox="0 0 270 157.97"><defs><style>.cls-1,.cls-4{fill:#fff;}.cls-2{fill:url(#linear-gradient);}.cls-3{fill:url(#linear-gradient-2);}.cls-4{opacity:0.12;isolation:isolate;}</style><linearGradient id="linear-gradient" x1="134.68" y1="151.09" x2="135.31" y2="-0.2" gradientUnits="userSpaceOnUse"><stop offset="0" stop-color="#0793ff"/><stop offset="1" stop-color="#64bcff"/></linearGradient><linearGradient id="linear-gradient-2" x1="135" y1="197.36" x2="135" y2="0" xlink:href="#linear-gradient"/></defs><title>Silver</title><g id="Layer_2" data-name="Layer 2"><g id="Layer_1-2" data-name="Layer 1"><path class="cls-1" d="M270,8V138.93c-13.73-6.27-33.26-19.61-46.44-8.9-18.62,15.13-28.19,34.94-61.88,25.48a78.12,78.12,0,0,1-20.6-11.14s-18.71-14.46-34.63-16.14c0,0-15.91-3.34-40.24,16.15,0,0-33.68,29.62-66.21.64V8A8,8,0,0,1,8,0H262A8,8,0,0,1,270,8Z"/><path class="cls-2" d="M270,8V138.93c-13.73-6.27-33.26-19.61-46.44-8.9-18.62,15.13-28.19,34.94-61.88,25.48a78.12,78.12,0,0,1-20.6-11.14s-18.71-14.46-34.63-16.14c0,0-15.91-3.34-40.24,16.15,0,0-33.68,29.62-66.21.64V8A8,8,0,0,1,8,0H262A8,8,0,0,1,270,8Z"/><path class="cls-3" d="M270,8V96.12c-18.32-11.63-36.84-18.54-52.47-8.93-21.15,13-41.09,34.76-64.35,33.06-18.66-1.36-35.07-17.93-53.66-20.44-17.3-2.34-34,7.68-50.58,14.54C32.78,121,13.77,124.18,0,111.47V8A8,8,0,0,1,8,0H262A8,8,0,0,1,270,8Z"/><circle class="cls-4" cx="116.38" cy="68.65" r="6.37"/><circle class="cls-4" cx="256.47" cy="56.55" r="5.73"/><path class="cls-1" d="M92.34,60.48h3.57A2.27,2.27,0,0,0,97,62.19a4.74,4.74,0,0,0,2.56.63,4.08,4.08,0,0,0,2.36-.63,1.91,1.91,0,0,0,.92-1.63,1.62,1.62,0,0,0-.71-1.36,6.23,6.23,0,0,0-2.33-.87l-2.3-.49c-3.19-.67-4.78-2.34-4.78-5a4.91,4.91,0,0,1,1.84-4,8.61,8.61,0,0,1,9.67,0,4.9,4.9,0,0,1,2,3.84h-3.46a2.41,2.41,0,0,0-1-1.69,4.33,4.33,0,0,0-4.45,0,1.85,1.85,0,0,0-.84,1.59,1.56,1.56,0,0,0,.68,1.32,5.91,5.91,0,0,0,2.23.83l2.12.46a7.68,7.68,0,0,1,3.86,1.75,4.35,4.35,0,0,1,1.21,3.25,5.09,5.09,0,0,1-1.91,4.19,9.67,9.67,0,0,1-10.28.1A5,5,0,0,1,92.34,60.48Z"/><path class="cls-1" d="M113.71,65.37H110V47.76h3.69Z"/><path class="cls-1" d="M129.5,62.16v3.21H118V47.76h3.68v14.4Z"/><path class="cls-1" d="M140.23,65.37h-4.45l-6-17.61H134l4,13.46h.23l3.93-13.46h4Z"/><path class="cls-1" d="M160.78,62.22v3.15H149.11V47.76h11.67v3.15h-8V55h7.53v2.92h-7.53v4.28Z"/><path class="cls-1" d="M168.34,59v6.38h-3.68V47.76h7.39a6.56,6.56,0,0,1,4.58,1.51,5.29,5.29,0,0,1,1.67,4.14,5.67,5.67,0,0,1-.84,3.06,4.84,4.84,0,0,1-2.35,2l3.71,7h-4.18L171.36,59Zm0-8.25v5.42h3.24a3.07,3.07,0,0,0,2.17-.72,2.9,2.9,0,0,0,0-4,3.12,3.12,0,0,0-2.18-.73Z"/></g></g></svg>