<svg xmlns="http://www.w3.org/2000/svg" width="25" height="25" viewBox="0 0 25 25"><defs><style>.a{fill:#1d9dff;}</style></defs><g transform="translate(0)"><path class="a" d="M12.5,0A12.5,12.5,0,1,0,25,12.5,12.514,12.514,0,0,0,12.5,0Zm5.576,9.639c.006.124.009.249.009.374a8.184,8.184,0,0,1-12.6,6.893,5.809,5.809,0,0,0,4.26-1.191,2.88,2.88,0,0,1-2.688-2,2.888,2.888,0,0,0,1.3-.048,2.878,2.878,0,0,1-2.308-2.821c0-.012,0-.025,0-.036a2.865,2.865,0,0,0,1.3.36,2.881,2.881,0,0,1-.89-3.841,8.169,8.169,0,0,0,5.93,3.007,2.879,2.879,0,0,1,4.9-2.625,5.743,5.743,0,0,0,1.828-.7A2.89,2.89,0,0,1,17.858,8.6a5.72,5.72,0,0,0,1.653-.453A5.787,5.787,0,0,1,18.076,9.639Z"/></g></svg>